<?xml version="1.0" encoding="UTF-8" standalone="no"?>
<svg
   xmlns:dc="http://purl.org/dc/elements/1.1/"
   xmlns:cc="http://creativecommons.org/ns#"
   xmlns:rdf="http://www.w3.org/1999/02/22-rdf-syntax-ns#"
   xmlns:svg="http://www.w3.org/2000/svg"
   xmlns="http://www.w3.org/2000/svg"
   xmlns:sodipodi="http://sodipodi.sourceforge.net/DTD/sodipodi-0.dtd"
   xmlns:inkscape="http://www.inkscape.org/namespaces/inkscape"
   version="1.1"
   width="100"
   height="26"
   xml:space="preserve"
   id="svg2985"
   inkscape:version="0.48.2 r9819"
   sodipodi:docname="mesh-aqua1.svg"><metadata
     id="metadata3039"><rdf:RDF><cc:Work
         rdf:about=""><dc:format>image/svg+xml</dc:format><dc:type
           rdf:resource="http://purl.org/dc/dcmitype/StillImage" /><dc:title></dc:title></cc:Work></rdf:RDF></metadata><defs
     id="defs3037" /><sodipodi:namedview
     pagecolor="#ffffff"
     bordercolor="#666666"
     borderopacity="1"
     objecttolerance="10"
     gridtolerance="10"
     guidetolerance="10"
     inkscape:pageopacity="0"
     inkscape:pageshadow="2"
     inkscape:window-width="1230"
     inkscape:window-height="803"
     id="namedview3035"
     showgrid="false"
     inkscape:zoom="5.3771855"
     inkscape:cx="41.289188"
     inkscape:cy="-0.295351"
     inkscape:window-x="2"
     inkscape:window-y="1"
     inkscape:window-maximized="0"
     inkscape:current-layer="svg2985" /><path
     sodipodi:nodetypes="cccc"
     inkscape:connector-curvature="0"
     id="path4506"
     d="M 27.499999,13 35.000001,-4e-6 19.999998,-1e-6 z"
     style="fill:#066070;fill-opacity:1;stroke:none" /><path
     sodipodi:nodetypes="cccc"
     inkscape:connector-curvature="0"
     id="path4508"
     d="M 57.499999,12.999996 65.000001,26 l -15.000003,-3e-6 z"
     style="fill:#00595f;fill-opacity:1;stroke:none" /><path
     style="fill:#097c83;fill-opacity:1;stroke:none"
     d="M 42.499999,13 50.000001,-4e-6 34.999998,-1e-6 z"
     id="path4510"
     inkscape:connector-curvature="0"
     sodipodi:nodetypes="cccc" /><path
     style="fill:#00595f;fill-opacity:1;stroke:none"
     d="M 72.499999,12.999996 80.000001,26 l -15.000003,-3e-6 z"
     id="path4512"
     inkscape:connector-curvature="0"
     sodipodi:nodetypes="cccc" /><path
     sodipodi:nodetypes="cccc"
     inkscape:connector-curvature="0"
     id="path4514"
     d="m 19.999999,26 7.500002,-13.000004 -15.000003,3e-6 z"
     style="fill:#074b50;fill-opacity:1;stroke:none" /><path
     style="fill:#248f93;fill-opacity:1;stroke:none"
     d="M 34.999999,-4e-6 42.500001,13 l -15.000003,-3e-6 z"
     id="path4518"
     inkscape:connector-curvature="0"
     sodipodi:nodetypes="cccc" /><path
     style="fill:#248f93;fill-opacity:1;stroke:none"
     d="M 64.999999,-4e-6 72.500001,13 l -15.000003,-3e-6 z"
     id="path4520"
     inkscape:connector-curvature="0"
     sodipodi:nodetypes="cccc" /><path
     sodipodi:nodetypes="cccc"
     inkscape:connector-curvature="0"
     id="path4522"
     d="m 49.999999,26 7.500002,-13.000004 -15.000003,3e-6 z"
     style="fill:#074b50;fill-opacity:1;stroke:none" /><path
     sodipodi:nodetypes="cccc"
     inkscape:connector-curvature="0"
     id="path4524"
     d="m 79.999999,26 7.500002,-13.000004 -15.000003,3e-6 z"
     style="fill:#074b50;fill-opacity:1;stroke:none" /><path
     style="fill:#00595f;fill-opacity:1;stroke:none"
     d="M 27.499999,12.999996 35.000001,26 l -15.000003,-3e-6 z"
     id="path4530"
     inkscape:connector-curvature="0"
     sodipodi:nodetypes="cccc" /><path
     style="fill:#066070;fill-opacity:1;stroke:none"
     d="M 57.499999,13 65.000001,-4e-6 49.999998,-1e-6 z"
     id="path4532"
     inkscape:connector-curvature="0"
     sodipodi:nodetypes="cccc" /><path
     sodipodi:nodetypes="cccc"
     inkscape:connector-curvature="0"
     id="path4534"
     d="M 42.499999,12.999996 50.000001,26 l -15.000003,-3e-6 z"
     style="fill:#00595f;fill-opacity:1;stroke:none" /><path
     sodipodi:nodetypes="cccc"
     inkscape:connector-curvature="0"
     id="path4536"
     d="M 72.499999,13 80.000001,-4e-6 64.999998,-1e-6 z"
     style="fill:#097c83;fill-opacity:1;stroke:none" /><path
     style="fill:#076d7f;fill-opacity:1;stroke:none"
     d="M 19.999999,-4e-6 27.500001,13 l -15.000003,-3e-6 z"
     id="path4538"
     inkscape:connector-curvature="0"
     sodipodi:nodetypes="cccc" /><path
     sodipodi:nodetypes="cccc"
     inkscape:connector-curvature="0"
     id="path4542"
     d="m 34.999999,26 7.500002,-13.000004 -15.000003,3e-6 z"
     style="fill:#097981;fill-opacity:1;stroke:none" /><path
     sodipodi:nodetypes="cccc"
     inkscape:connector-curvature="0"
     id="path4544"
     d="m 64.999999,26 7.500002,-13.000004 -15.000003,3e-6 z"
     style="fill:#097981;fill-opacity:1;stroke:none" /><path
     style="fill:#076d7f;fill-opacity:1;stroke:none"
     d="M 49.999999,-4e-6 57.500001,13 l -15.000003,-3e-6 z"
     id="path4546"
     inkscape:connector-curvature="0"
     sodipodi:nodetypes="cccc" /><path
     style="fill:#076d7f;fill-opacity:1;stroke:none"
     d="M 79.999999,-4e-6 87.500001,13 l -15.000003,-3e-6 z"
     id="path4548"
     inkscape:connector-curvature="0"
     sodipodi:nodetypes="cccc" /></svg>