/* XPM */
static char *set_history[] = {
/* columns rows colors chars-per-pixel */
"24 24 10 1",
"  c #000000",
". c #7A0026",
"X c #A81C24",
"o c #BF1C24",
"O c #FF0000",
"+ c #D61C24",
"@ c #FFF568",
"# c #C7B299",
"$ c #FFFFFF",
"% c None",
/* pixels */
"%%%%%%%%%%%%%%%%%%%%%%%%",
"%%%%%%%%%%%%%%%%%%%%%%%%",
"%%%%%%....%%%%%%%%%%%%%%",
"%%%%  O+oX %%%       %%%",
"%%%  $O+oX$ % $$$$$$  %%",
"%%% $$O+oX$   $$$$$$$ %%",
"%%% $$O+oX$# #$$$$$$$ %%",
"%%% $$O+oX$# #$    $$ %%",
"%%% $$O+oX$# #$$$$$$$ %%",
"%%% $$O+oX$# #$    $$ %%",
"%%% $$O+oX$# #$$$$$$$ %%",
"%%% $$O..X$# #$    $$ %%",
"%%% $$O$$X$# #$$$$$$$ %%",
"%%% $$.$$.$# #$    $$ %%",
"%%% $$$$$$$# #$$$$$$$ %%",
"%%% $@$$$$$# #$    $$ %%",
"%%% @@@$$@$# #$$$$$$$ %%",
"%%% $@$$@@@# #$$$$$$$ %%",
"%%% $$$$$@$# #$$$$$$$ %%",
"%%%        # #        %%",
"%%%                   %%",
"%%%%%               %%%%",
"%%%%%%%%%%     %%%%%%%%%",
"%%%%%%%%%%%%%%%%%%%%%%%%"
};
