/* XPM */
static char *prev_history[] = {
/* columns rows colors chars-per-pixel */
"24 24 16 1",
"  c #000000",
". c #005826",
"X c #007236",
"o c #009E00",
"O c #00C900",
"+ c #00E300",
"@ c #00F200",
"# c #00FF00",
"$ c #FFFF00",
"% c #998675",
"& c #898989",
"* c #C7B299",
"= c #DEC9B3",
"- c #FFE3CF",
"; c #FFFFFF",
": c None",
/* pixels */
":$::::::::::::::::::::::",
":$::::::::::::::::::::::",
"$$$::::::::::      :::::",
":$::       :  ;;;; :::::",
":$:  ;;;;-=  ;;;;;    ::",
"::: ;;;;;-= ;;;;;; *; ::",
"::: ;;;;;-=  & & ; *; ::",
"::: ;;;;;-= ;;;;;; *; ::",
"::: ;.;;;-=  & & ; *; ::",
"::: ..*;;-= ;;;;;; *; ::",
":::.X.*;;-= ;;;;;; *; ::",
"::.X#............; *; ::",
":.X#####@++OOo.%%; *; ::",
".X#####+++OOo.%;;; *; ::",
":.X###+++OOooo.;;; *; ::",
"::.X#............; *; ::",
":::.X.%%%%% %%%%%; *; ::",
"::: ..%;;-= ;;;    *; ::",
"::: %.%;;-= ;;  ****; ::",
":::                   ::",
":::                   ::",
":::::               ::::",
"::::::::::     :::::::::",
"::::::::::::::::::::::::"
};
