<?xml version="1.0" encoding="UTF-8" standalone="no"?>
<svg
   xmlns:dc="http://purl.org/dc/elements/1.1/"
   xmlns:cc="http://creativecommons.org/ns#"
   xmlns:rdf="http://www.w3.org/1999/02/22-rdf-syntax-ns#"
   xmlns:svg="http://www.w3.org/2000/svg"
   xmlns="http://www.w3.org/2000/svg"
   xmlns:sodipodi="http://sodipodi.sourceforge.net/DTD/sodipodi-0.dtd"
   xmlns:inkscape="http://www.inkscape.org/namespaces/inkscape"
   version="1.1"
   width="100"
   height="26"
   xml:space="preserve"
   id="svg2985"
   inkscape:version="0.48.5 r10040"
   sodipodi:docname="mesh-red.svg"><metadata
     id="metadata3039"><rdf:RDF><cc:Work
         rdf:about=""><dc:format>image/svg+xml</dc:format><dc:type
           rdf:resource="http://purl.org/dc/dcmitype/StillImage" /><dc:title /></cc:Work></rdf:RDF></metadata><defs
     id="defs3037" /><sodipodi:namedview
     pagecolor="#ffffff"
     bordercolor="#666666"
     borderopacity="1"
     objecttolerance="10"
     gridtolerance="10"
     guidetolerance="10"
     inkscape:pageopacity="0"
     inkscape:pageshadow="2"
     inkscape:window-width="1230"
     inkscape:window-height="803"
     id="namedview3035"
     showgrid="false"
     inkscape:zoom="7.6044886"
     inkscape:cx="46.471916"
     inkscape:cy="13.0625"
     inkscape:window-x="2"
     inkscape:window-y="1"
     inkscape:window-maximized="0"
     inkscape:current-layer="svg2985" /><path
     style="fill:#79080d;fill-opacity:1;stroke:none"
     d="M 22.500001,12.999996 30.000003,26 15,25.999997 z"
     id="rect4501"
     inkscape:connector-curvature="0"
     sodipodi:nodetypes="cccc" /><path
     sodipodi:nodetypes="cccc"
     inkscape:connector-curvature="0"
     id="path4504"
     d="M 7.500001,12.999996 15.000003,26 0,25.999997 z"
     style="fill:#79080d;fill-opacity:1;stroke:none" /><path
     sodipodi:nodetypes="cccc"
     inkscape:connector-curvature="0"
     id="path4506"
     d="M 37.500001,12.999996 45.000003,26 30,25.999997 z"
     style="fill:#79080d;fill-opacity:1;stroke:none" /><path
     sodipodi:nodetypes="cccc"
     inkscape:connector-curvature="0"
     id="path4508"
     d="M 67.500001,12.999996 75.000003,26 60,25.999997 z"
     style="fill:#79080d;fill-opacity:1;stroke:none" /><path
     style="fill:#79080d;fill-opacity:1;stroke:none"
     d="M 52.500001,12.999996 60.000003,26 45,25.999997 z"
     id="path4510"
     inkscape:connector-curvature="0"
     sodipodi:nodetypes="cccc" /><path
     style="fill:#79080d;fill-opacity:1;stroke:none"
     d="M 82.500001,12.999996 90.000003,26 75,25.999997 z"
     id="path4512"
     inkscape:connector-curvature="0"
     sodipodi:nodetypes="cccc" /><path
     sodipodi:nodetypes="cccc"
     inkscape:connector-curvature="0"
     id="path4514"
     d="M 30.000001,26 37.500003,12.999996 22.5,12.999999 z"
     style="fill:#5f0004;fill-opacity:1;stroke:none" /><path
     style="fill:#9d2126;fill-opacity:1;stroke:none"
     d="M 15.000001,26 22.500003,12.999996 7.5,12.999999 z"
     id="path4516"
     inkscape:connector-curvature="0"
     sodipodi:nodetypes="cccc" /><path
     style="fill:#9d2126;fill-opacity:1;stroke:none"
     d="M 45.000001,26 52.500003,12.999996 37.5,12.999999 z"
     id="path4518"
     inkscape:connector-curvature="0"
     sodipodi:nodetypes="cccc" /><path
     style="fill:#9d2126;fill-opacity:1;stroke:none"
     d="M 75.000001,26 82.500003,12.999996 67.5,12.999999 z"
     id="path4520"
     inkscape:connector-curvature="0"
     sodipodi:nodetypes="cccc" /><path
     sodipodi:nodetypes="cccc"
     inkscape:connector-curvature="0"
     id="path4522"
     d="M 60.000001,26 67.500003,12.999996 52.5,12.999999 z"
     style="fill:#5f0004;fill-opacity:1;stroke:none" /><path
     sodipodi:nodetypes="cccc"
     inkscape:connector-curvature="0"
     id="path4524"
     d="M 90.000001,26 97.500003,12.999996 82.5,12.999999 z"
     style="fill:#5f0004;fill-opacity:1;stroke:none" /><path
     sodipodi:nodetypes="cccc"
     inkscape:connector-curvature="0"
     id="path4526"
     d="M 22.500001,13 30.000003,-4e-6 15,-1e-6 z"
     style="fill:#9a0008;fill-opacity:1;stroke:none" /><path
     style="fill:#79080d;fill-opacity:1;stroke:none"
     d="M 7.500001,13 15.000003,-4e-6 0,-1e-6 z"
     id="path4528"
     inkscape:connector-curvature="0"
     sodipodi:nodetypes="cccc" /><path
     style="fill:#79080d;fill-opacity:1;stroke:none"
     d="M 37.500001,13 45.000003,-4e-6 30,-1e-6 z"
     id="path4530"
     inkscape:connector-curvature="0"
     sodipodi:nodetypes="cccc" /><path
     style="fill:#79080d;fill-opacity:1;stroke:none"
     d="M 67.500001,13 75.000003,-4e-6 60,-1e-6 z"
     id="path4532"
     inkscape:connector-curvature="0"
     sodipodi:nodetypes="cccc" /><path
     sodipodi:nodetypes="cccc"
     inkscape:connector-curvature="0"
     id="path4534"
     d="M 52.500001,13 60.000003,-4e-6 45,-1e-6 z"
     style="fill:#9a0008;fill-opacity:1;stroke:none" /><path
     sodipodi:nodetypes="cccc"
     inkscape:connector-curvature="0"
     id="path4536"
     d="M 82.500001,13 90.000003,-4e-6 75,-1e-6 z"
     style="fill:#9a0008;fill-opacity:1;stroke:none" /><path
     style="fill:#7f070b;fill-opacity:1;stroke:none"
     d="M 30.000001,-4e-6 37.500003,13 22.5,12.999997 z"
     id="path4538"
     inkscape:connector-curvature="0"
     sodipodi:nodetypes="cccc" /><path
     sodipodi:nodetypes="cccc"
     inkscape:connector-curvature="0"
     id="path4540"
     d="M 15.000001,-4e-6 22.500003,13 7.5,12.999997 z"
     style="fill:#b60d10;fill-opacity:1;stroke:none" /><path
     sodipodi:nodetypes="cccc"
     inkscape:connector-curvature="0"
     id="path4542"
     d="M 45.000001,-4e-6 52.500003,13 37.5,12.999997 z"
     style="fill:#b60d10;fill-opacity:1;stroke:none" /><path
     sodipodi:nodetypes="cccc"
     inkscape:connector-curvature="0"
     id="path4544"
     d="M 75.000001,-4e-6 82.500003,13 67.5,12.999997 z"
     style="fill:#b60d10;fill-opacity:1;stroke:none" /><path
     style="fill:#7f070b;fill-opacity:1;stroke:none"
     d="M 60.000001,-4e-6 67.500003,13 52.5,12.999997 z"
     id="path4546"
     inkscape:connector-curvature="0"
     sodipodi:nodetypes="cccc" /><path
     style="fill:#7f070b;fill-opacity:1;stroke:none"
     d="M 90.000001,-4e-6 97.500003,13 82.5,12.999997 z"
     id="path4548"
     inkscape:connector-curvature="0"
     sodipodi:nodetypes="cccc" /></svg>