<?xml version="1.0" encoding="UTF-8" standalone="no"?>
<!-- Created with Inkscape (http://www.inkscape.org/) -->

<svg
   xmlns:dc="http://purl.org/dc/elements/1.1/"
   xmlns:cc="http://creativecommons.org/ns#"
   xmlns:rdf="http://www.w3.org/1999/02/22-rdf-syntax-ns#"
   xmlns:svg="http://www.w3.org/2000/svg"
   xmlns="http://www.w3.org/2000/svg"
   xmlns:sodipodi="http://sodipodi.sourceforge.net/DTD/sodipodi-0.dtd"
   xmlns:inkscape="http://www.inkscape.org/namespaces/inkscape"
   width="100"
   height="100"
   id="svg2"
   version="1.1"
   inkscape:version="0.48.5 r10040"
   sodipodi:docname="vc-change.svg">
  <defs
     id="defs4" />
  <sodipodi:namedview
     id="base"
     pagecolor="#ffffff"
     bordercolor="#666666"
     borderopacity="1.0"
     inkscape:pageopacity="0.0"
     inkscape:pageshadow="2"
     inkscape:zoom="2.8"
     inkscape:cx="101.96145"
     inkscape:cy="32.675737"
     inkscape:document-units="px"
     inkscape:current-layer="layer1"
     showgrid="false"
     inkscape:window-width="820"
     inkscape:window-height="1149"
     inkscape:window-x="1331"
     inkscape:window-y="473"
     inkscape:window-maximized="0" />
  <metadata
     id="metadata7">
    <rdf:RDF>
      <cc:Work
         rdf:about="">
        <dc:format>image/svg+xml</dc:format>
        <dc:type
           rdf:resource="http://purl.org/dc/dcmitype/StillImage" />
        <dc:title />
      </cc:Work>
    </rdf:RDF>
  </metadata>
  <g
     inkscape:label="Layer 1"
     inkscape:groupmode="layer"
     id="layer1"
     transform="translate(0,-952.36218)">
    <path
       transform="matrix(0.81871343,0,0,0.81871497,36.25731,987.15747)"
       style="fill:#d40000;fill-opacity:1;stroke:none"
       d="m 77.857145,18.571428 c 0,33.72882 -27.34261,61.071431 -61.07143,61.071431 -33.728819,0 -61.07143,-27.342611 -61.07143,-61.071431 0,-33.728819 27.342611,-61.07143 61.07143,-61.07143 33.72882,0 61.07143,27.342611 61.07143,61.07143 z"
       id="path2987" />
    <g
       style="font-size:101.45310211px;font-style:normal;font-variant:normal;font-weight:bold;font-stretch:normal;text-align:center;line-height:125%;letter-spacing:0px;word-spacing:0px;writing-mode:lr-tb;text-anchor:middle;fill:#ffffff;fill-opacity:1;stroke:none;font-family:Arial Rounded MT Bold;-inkscape-font-specification:Arial Rounded MT Bold"
       id="text2991">
      <path
         d="m 46.046895,1007.2664 -1.585204,-23.72856 c -0.297236,-4.62345 -0.445849,-7.94247 -0.445839,-9.95707 -1e-5,-2.74101 0.710029,-4.87113 2.130119,-6.39035 1.453091,-1.55211 3.352032,-2.3282 5.696829,-2.32827 2.840138,7e-5 4.73908,0.99082 5.69683,2.97225 0.957703,1.94855 1.436567,4.7722 1.436591,8.47094 -2.4e-5,2.17972 -0.115612,4.3924 -0.346763,6.63805 l -2.130119,24.42201 c -0.231197,2.9063 -0.726573,5.1355 -1.486129,6.6876 -0.759597,1.5522 -2.01455,2.3283 -3.764862,2.3283 -1.78337,0 -3.02181,-0.743 -3.715323,-2.2292 -0.69354,-1.5191 -1.188916,-3.8144 -1.48613,-6.8857 m 5.498679,32.5957 c -2.014546,0 -3.781387,-0.6439 -5.300528,-1.9319 -1.48614,-1.321 -2.229204,-3.1539 -2.229194,-5.4987 -1e-5,-2.0476 0.710029,-3.7814 2.130119,-5.2015 1.453091,-1.453 3.219932,-2.1796 5.300528,-2.1796 2.080562,0 3.847403,0.7266 5.300528,2.1796 1.486106,1.4201 2.22917,3.1539 2.229194,5.2015 -2.4e-5,2.3118 -0.743088,4.1281 -2.229194,5.4491 -1.48615,1.321 -3.219966,1.9815 -5.201453,1.9815"
         style=""
         id="path3321" />
    </g>
  </g>
</svg>
