<?xml version="1.0" encoding="UTF-8" standalone="no"?>
<!-- Created with Inkscape (http://www.inkscape.org/) -->

<svg
   xmlns:dc="http://purl.org/dc/elements/1.1/"
   xmlns:cc="http://creativecommons.org/ns#"
   xmlns:rdf="http://www.w3.org/1999/02/22-rdf-syntax-ns#"
   xmlns:svg="http://www.w3.org/2000/svg"
   xmlns="http://www.w3.org/2000/svg"
   xmlns:sodipodi="http://sodipodi.sourceforge.net/DTD/sodipodi-0.dtd"
   xmlns:inkscape="http://www.inkscape.org/namespaces/inkscape"
   width="26"
   height="26"
   id="svg2"
   version="1.1"
   inkscape:version="0.48.2 r9819"
   sodipodi:docname="vc-ok.svg">
  <defs
     id="defs4" />
  <sodipodi:namedview
     id="base"
     pagecolor="#ffffff"
     bordercolor="#666666"
     borderopacity="1.0"
     inkscape:pageopacity="0.0"
     inkscape:pageshadow="2"
     inkscape:zoom="2.8"
     inkscape:cx="-18.752835"
     inkscape:cy="18.390143"
     inkscape:document-units="px"
     inkscape:current-layer="layer1"
     showgrid="false"
     inkscape:window-width="822"
     inkscape:window-height="903"
     inkscape:window-x="471"
     inkscape:window-y="0"
     inkscape:window-maximized="0"
     fit-margin-top="0"
     fit-margin-left="0"
     fit-margin-right="0"
     fit-margin-bottom="0" />
  <metadata
     id="metadata7">
    <rdf:RDF>
      <cc:Work
         rdf:about="">
        <dc:format>image/svg+xml</dc:format>
        <dc:type
           rdf:resource="http://purl.org/dc/dcmitype/StillImage" />
        <dc:title />
      </cc:Work>
    </rdf:RDF>
  </metadata>
  <g
     inkscape:label="Layer 1"
     inkscape:groupmode="layer"
     id="layer1"
     transform="translate(-3.7234755e-7,-1026.3623)">
    <rect
       style="fill:#000000;fill-opacity:1"
       id="rect3205"
       width="26"
       height="26"
       x="3.7234756e-07"
       y="1026.3623" />
    <g
       id="g3199">
      <path
         inkscape:connector-curvature="0"
         id="path2987"
         d="m 20.999973,1039.3623 c 0,4.4183 -3.581709,8 -7.999973,8 -4.4182621,0 -7.9999718,-3.5817 -7.9999718,-8 0,-4.4183 3.5817097,-8 7.9999718,-8 4.418264,0 7.999973,3.5817 7.999973,8 z"
         style="fill:#008000;fill-opacity:1;stroke:none" />
      <g
         transform="matrix(0.15999945,0,0,0.15999945,5.0000276,878.9849)"
         id="text2991"
         style="font-size:52.72287369px;font-style:normal;font-variant:normal;font-weight:bold;font-stretch:normal;text-align:center;line-height:125%;letter-spacing:0px;word-spacing:0px;writing-mode:lr-tb;text-anchor:middle;fill:#ffffff;fill-opacity:1;stroke:none;font-family:Arial Rounded MT Bold;-inkscape-font-specification:Arial Rounded MT Bold">
        <path
           inkscape:connector-curvature="0"
           id="path3174"
           d="m 30.473489,982.84855 c 3.913001,3e-5 7.268245,0.79808 10.065744,2.39415 2.814599,1.57897 4.942733,3.83583 6.38441,6.77056 1.441603,2.91764 2.162422,6.35011 2.162462,10.29744 -4e-5,2.9176 -0.394774,5.5692 -1.184205,7.9548 -0.789508,2.3856 -1.973712,4.4536 -3.552616,6.2042 -1.578973,1.7505 -3.518322,3.0892 -5.818051,4.016 -2.299788,0.9267 -4.934213,1.3901 -7.903283,1.3901 -2.951949,0 -5.594955,-0.4719 -7.929026,-1.4159 -2.334096,-0.9611 -4.282026,-2.3083 -5.843795,-4.0417 -1.561783,-1.7334 -2.745987,-3.8186 -3.552615,-6.2557 -0.789473,-2.4371 -1.184208,-5.0715 -1.184205,-7.9033 -3e-6,-2.90041 0.411894,-5.56058 1.235692,-7.9805 0.840953,-2.41987 2.0509,-4.47935 3.629846,-6.17846 1.578932,-1.69904 3.501118,-2.9948 5.766564,-3.88728 2.265421,-0.90957 4.839778,-1.36438 7.723078,-1.36441 m 10.863795,19.41065 c -3.2e-5,-2.76311 -0.446253,-5.15726 -1.338667,-7.18245 -0.892474,-2.02513 -2.171071,-3.55259 -3.835795,-4.58236 -1.647614,-1.04687 -3.544057,-1.57033 -5.689333,-1.57036 -1.527473,3e-5 -2.943369,0.2918 -4.247693,0.87528 -1.287195,0.56639 -2.402749,1.39877 -3.346667,2.49713 -0.926781,1.09842 -1.664763,2.50574 -2.213948,4.22195 -0.532045,1.6991 -0.798062,3.61271 -0.798052,5.74081 -10e-6,2.1453 0.266007,4.0847 0.798052,5.8181 0.549185,1.7334 1.312911,3.175 2.291179,4.3249 0.995405,1.1327 2.128122,1.9823 3.398154,2.5486 1.287162,0.5664 2.694477,0.8495 4.221949,0.8495 1.95649,0 3.749958,-0.4891 5.38041,-1.4673 1.647562,-0.9783 2.951903,-2.4886 3.913026,-4.5309 0.978226,-2.0423 1.467353,-4.5566 1.467385,-7.5429" />
        <path
           inkscape:connector-curvature="0"
           id="path3176"
           d="m 63.373797,987.48239 0,13.23221 15.008513,-15.65211 c 0.720793,-0.7551 1.330057,-1.31288 1.827795,-1.67333 0.514843,-0.36037 1.192757,-0.54058 2.033744,-0.54061 1.098361,3e-5 1.982224,0.32612 2.65159,0.97825 0.686461,0.63505 1.029709,1.41594 1.029743,2.34267 -3.4e-5,1.11559 -0.574974,2.22256 -1.72482,3.32092 l -9.293437,8.80431 10.709334,15.3432 c 0.755111,1.0641 1.321469,1.9994 1.699077,2.806 0.377537,0.7895 0.566323,1.5618 0.566359,2.317 -3.6e-5,0.8409 -0.334703,1.5703 -1.004,2.1882 -0.652206,0.6178 -1.544649,0.9267 -2.677333,0.9267 -1.0641,0 -1.9308,-0.2231 -2.600103,-0.6693 -0.669363,-0.4634 -1.235721,-1.0727 -1.699077,-1.8278 -0.463413,-0.7551 -0.87531,-1.4416 -1.235692,-2.0595 l -9.036001,-13.9015 -6.255692,5.9982 0,7.8003 c -1.2e-5,1.579 -0.360422,2.7546 -1.081231,3.5269 -0.720831,0.7552 -1.647599,1.1327 -2.780308,1.1327 -0.652178,0 -1.278605,-0.1716 -1.879282,-0.5148 -0.600689,-0.3433 -1.064073,-0.8067 -1.390154,-1.3902 -0.240278,-0.4805 -0.386158,-1.0383 -0.437641,-1.6733 -0.05149,-0.635 -0.07723,-1.5532 -0.07723,-2.7546 l 0,-28.06051 c -4e-6,-1.54458 0.334663,-2.70304 1.004,-3.47538 0.68649,-0.77227 1.613259,-1.15843 2.780308,-1.15846 1.149871,3e-5 2.07664,0.38619 2.780308,1.15846 0.720809,0.75518 1.081219,1.91364 1.081231,3.47538" />
      </g>
    </g>
  </g>
</svg>
