<?xml version="1.0" encoding="UTF-8" standalone="no"?>
<!-- Created with Inkscape (http://www.inkscape.org/) -->

<svg
   xmlns:dc="http://purl.org/dc/elements/1.1/"
   xmlns:cc="http://creativecommons.org/ns#"
   xmlns:rdf="http://www.w3.org/1999/02/22-rdf-syntax-ns#"
   xmlns:svg="http://www.w3.org/2000/svg"
   xmlns="http://www.w3.org/2000/svg"
   xmlns:sodipodi="http://sodipodi.sourceforge.net/DTD/sodipodi-0.dtd"
   xmlns:inkscape="http://www.inkscape.org/namespaces/inkscape"
   width="26"
   height="26.000099"
   id="svg2"
   version="1.1"
   inkscape:version="0.48.2 r9819"
   sodipodi:docname="vc-unknown.svg">
  <defs
     id="defs4" />
  <sodipodi:namedview
     id="base"
     pagecolor="#ffffff"
     bordercolor="#666666"
     borderopacity="1.0"
     inkscape:pageopacity="0.0"
     inkscape:pageshadow="2"
     inkscape:zoom="2.8"
     inkscape:cx="42.854308"
     inkscape:cy="32.675857"
     inkscape:document-units="px"
     inkscape:current-layer="layer1"
     showgrid="false"
     inkscape:window-width="851"
     inkscape:window-height="679"
     inkscape:window-x="933"
     inkscape:window-y="0"
     inkscape:window-maximized="0"
     fit-margin-top="0"
     fit-margin-left="0"
     fit-margin-right="0"
     fit-margin-bottom="0" />
  <metadata
     id="metadata7">
    <rdf:RDF>
      <cc:Work
         rdf:about="">
        <dc:format>image/svg+xml</dc:format>
        <dc:type
           rdf:resource="http://purl.org/dc/dcmitype/StillImage" />
        <dc:title />
      </cc:Work>
    </rdf:RDF>
  </metadata>
  <g
     inkscape:label="Layer 1"
     inkscape:groupmode="layer"
     id="layer1"
     transform="translate(-3.7234755e-7,-1026.3622)">
    <rect
       style="fill:#000000;fill-opacity:1;fill-rule:evenodd;stroke:none"
       id="rect3997"
       width="26"
       height="26"
       x="3.7234756e-07"
       y="1026.3623" />
    <g
       id="g3175"
       transform="matrix(0.61538462,0,0,0.61538462,5.0000002,399.75471)">
      <path
         inkscape:connector-curvature="0"
         id="path2987"
         d="m 26,1039.3622 c 0,7.1798 -5.820298,13.0001 -13,13.0001 -7.1797013,0 -12.99999962765245,-5.8203 -12.99999962765245,-13.0001 0,-7.1797 5.82029832765245,-13 12.99999962765245,-13 7.179702,0 13,5.8203 13,13 z"
         style="fill:#800080;fill-opacity:1;stroke:none" />
      <g
         transform="matrix(0.26,0,0,0.26,-0.42760852,778.74809)"
         id="text2991"
         style="font-size:101.45310211px;font-style:normal;font-variant:normal;font-weight:bold;font-stretch:normal;text-align:center;line-height:125%;letter-spacing:0px;word-spacing:0px;writing-mode:lr-tb;text-anchor:middle;fill:#ffffff;fill-opacity:1;stroke:none;font-family:Arial Rounded MT Bold;-inkscape-font-specification:Arial Rounded MT Bold">
        <path
           inkscape:connector-curvature="0"
           id="path3311"
           d="m 26.875826,985.56888 c -5e-6,-3.13733 1.00726,-6.30773 3.021796,-9.51123 2.014522,-3.23639 4.953753,-5.91142 8.817701,-8.02509 3.863917,-2.11354 8.371838,-3.17034 13.523778,-3.17041 4.788605,7e-5 9.015813,0.89175 12.681638,2.67503 3.66574,1.7504 6.489383,4.14472 8.470938,7.18296 2.014478,3.03837 3.021742,6.34087 3.021796,9.90753 -5.4e-5,2.80718 -0.577992,5.26755 -1.733817,7.38111 -1.122905,2.11365 -2.476933,3.94654 -4.062088,5.49868 -1.552226,1.51919 -4.359356,4.09514 -8.4214,7.72784 -1.122892,1.0238 -2.031081,1.932 -2.72457,2.7246 -0.660539,0.7596 -1.155915,1.4696 -1.48613,2.1301 -0.330286,0.6275 -0.594486,1.2715 -0.792602,1.932 -0.16516,0.6275 -0.429361,1.7503 -0.792602,3.3685 -0.627511,3.4347 -2.592502,5.152 -5.89498,5.152 -1.717332,0 -3.170435,-0.5614 -4.359313,-1.6843 -1.155901,-1.1229 -1.73384,-2.7906 -1.733818,-5.0033 -2.2e-5,-2.7741 0.429304,-5.1684 1.287979,-7.183 0.858628,-2.0475 1.997993,-3.8309 3.418097,-5.35 1.420052,-1.55219 3.335505,-3.38508 5.746368,-5.49872 2.113571,-1.84937 3.632724,-3.23642 4.557463,-4.16117 0.95769,-0.95768 1.750292,-2.01448 2.377807,-3.17041 0.660462,-1.15582 0.990713,-2.41078 0.990753,-3.76486 -4e-5,-2.64195 -0.990792,-4.87114 -2.972259,-6.68758 -1.948516,-1.81632 -4.474933,-2.72451 -7.57926,-2.72457 -3.632787,6e-5 -6.307817,0.92476 -8.025099,2.77411 -1.717325,1.81644 -3.170428,4.50798 -4.359313,8.07463 -1.122869,3.73189 -3.252986,5.59781 -6.390356,5.59776 -1.849415,5e-5 -3.418105,-0.64394 -4.706077,-1.93197 -1.254958,-1.32095 -1.882435,-2.74103 -1.88243,-4.26024 m 24.174372,54.29322 c -2.014558,0 -3.781399,-0.6439 -5.300529,-1.9319 -1.486151,-1.321 -2.229215,-3.1539 -2.229194,-5.4987 -2.1e-5,-2.0806 0.726531,-3.8309 2.179657,-5.251 1.453079,-1.4201 3.236433,-2.1301 5.350066,-2.1301 2.08055,0 3.830879,0.71 5.25099,2.1301 1.420044,1.4201 2.130083,3.1704 2.130119,5.251 -3.6e-5,2.3118 -0.7431,4.1281 -2.229194,5.4491 -1.486162,1.321 -3.203465,1.9815 -5.151915,1.9815" />
      </g>
    </g>
  </g>
</svg>
