/* XPM */
static char *goto_history[] = {
/* columns rows colors chars-per-pixel */
"24 24 31 1",
"  c #000000",
". c #070809",
"X c #0E1011",
"o c #7A0026",
"O c #7A0227",
"+ c #A81C24",
"@ c #BF1C24",
"# c #FF0000",
"$ c #D61C24",
"% c #FFD800",
"& c #939393",
"* c #A4A4A4",
"= c #C7B299",
"- c #BEC6CA",
"; c #BBD6F2",
": c #D7DDE1",
"> c #DDEEFF",
", c #E2E2E2",
"< c #E7EBEC",
"1 c #EBEDEE",
"2 c #EFF1F3",
"3 c #F0F2F3",
"4 c #F5F7F8",
"5 c #F8F9FA",
"6 c #F9FAFB",
"7 c #FAFAFB",
"8 c #FAFBFC",
"9 c #FCFCFD",
"0 c #FEFEFE",
"q c #FFFFFF",
"w c None",
/* pixels */
"wwwwwwwwwwwwwwwwwwwwwwww",
"wwwwwwwwwwwwwwwww%wwwwww",
"wwwwwoooowwwwwwww%wwwwww",
"wwww #$@+  www   %   www",
"www  #$@+q    qq%%%q  ww",
"www q#$-    -=qqq%qqq ww",
"www q#- <773 -qqq%qqq ww",
"www q- 2qqqq; - * * q ww",
"www q :qqqq>;- qqqqqq ww",
"www q :8878>;- X* * q ww",
"www q :888>>;- 1qqqqq ww",
"www q :47>>;;- .* * q ww",
"www q- >>>;;;  qqqqqq ww",
"www qo- ;;;;    * * q ww",
"www q%q-       &,qqqq ww",
"www q%qq---- ,& &,q q ww",
"www %%%qqqq= =,& &,qq ww",
"www q%qqqqq= =q,& &,q ww",
"www q%qqqqq= =qqq& &, ww",
"www        = =    & & ww",
"www                &  ww",
"wwwww               wwww",
"wwwwwwwwww     wwwwwwwww",
"wwwwwwwwwwwwwwwwwwwwwwww"
};
