/* XPM */
static char *next_history[] = {
/* columns rows colors chars-per-pixel */
"24 24 15 1",
"  c #000000",
". c #005826",
"X c #007236",
"o c #FFFF00",
"O c #998675",
"+ c #00B0B5",
"@ c #00CCD1",
"# c #00E8E8",
"$ c #00FFFF",
"% c #898989",
"& c #C7B299",
"* c #DEC9B3",
"= c #FFE3CF",
"- c #FFFFFF",
"; c None",
/* pixels */
";;;;;;;;;;;;;;;;;;;;;;o;",
";;;;;;;;;;;;;;;;;;;;;;o;",
";;;;;      ;;;;;;;;;;ooo",
";;;;; ----  ;       ;;o;",
";;    -----  *=----  ;o;",
";; -& ------ *=----- ;;;",
";; -& - % %  *=----- ;;;",
";; -& ------ *=----- ;;;",
";; -& - % %  *=---.- ;;;",
";; -& ------ *=--&.. ;;;",
";; -& ------ *=--&.X.;;;",
";; -& -............$X.;;",
";; -& -OO.++@@##$$$$$X.;",
";; -& ---O.++@@###$$$$X.",
";; -& ---.++++@@###$$X.;",
";; -& -............$X.;;",
";; -& -OOOOO OOOOO.X.;;;",
";; -&    --- *=--O.. ;;;",
";; -&&&&  -- *=--O.O ;;;",
";;                   ;;;",
";;                   ;;;",
";;;;               ;;;;;",
";;;;;;;;;     ;;;;;;;;;;",
";;;;;;;;;;;;;;;;;;;;;;;;"
};
