<?xml version="1.0" encoding="UTF-8" standalone="no"?>
<!-- Joe 1970 -->
<svg xmlns="http://www.w3.org/2000/svg" version="1.1" width="98.625961" height="26.125" xml:space="preserve">
  <path d="M 15.197313,0.0625 7.6298,13.062438 0.0625,0.0625 l 15.134812,0 z"          style="fill:#197971;fill-opacity:1;fill-rule:nonzero;stroke:#197971;stroke-width:0.05;stroke-miterlimit:4;stroke-opacity:1;stroke-dasharray:none" />
  <path d="M 7.629875,13.062438 15.197388,0.0625 l 7.5673,12.999938 -15.134813,0 z"    style="fill:#3fa089;fill-opacity:1;fill-rule:nonzero;stroke:#3fa089;stroke-width:0.05;stroke-miterlimit:4;stroke-opacity:1;stroke-dasharray:none" />
  <path d="m 30.331988,0.0625 -7.5673,12.999938 -7.567301,-12.999938 15.1346,0 z"      style="fill:#72ab89;fill-opacity:1;fill-rule:nonzero;stroke:#72ab89;stroke-width:0.05;stroke-miterlimit:4;stroke-opacity:1;stroke-dasharray:none" />
  <path d="m 22.764638,13.062438 7.5673,-12.999938 7.567525,12.999938 -15.134825,0 z"  style="fill:#69a68a;fill-opacity:1;fill-rule:nonzero;stroke:#a6b886;stroke-width:0.05;stroke-miterlimit:4;stroke-opacity:1;stroke-dasharray:none" />
  <path d="m 0.062525,26.0625 7.5673,-12.999937 7.567513,12.999937 -15.134813,0 z"     style="fill:#00707a;fill-opacity:1;fill-rule:nonzero;stroke:#00707a;stroke-width:0.05;stroke-miterlimit:4;stroke-opacity:1;stroke-dasharray:none" />
  <path d="m 22.764638,13.062438 -7.5673,12.999938 -7.567513,-12.999938 15.134813,0 z" style="fill:#007d7e;fill-opacity:1;fill-rule:nonzero;stroke:#007d7e;stroke-width:0.05;stroke-miterlimit:4;stroke-opacity:1;stroke-dasharray:none" />
  <path d="m 15.197313,26.0625 7.567299,-12.999937 7.567301,12.999937 -15.1346,0 z"    style="fill:#69a68a;fill-opacity:1;fill-rule:nonzero;stroke:#69a68a;stroke-width:0.05;stroke-miterlimit:4;stroke-opacity:1;stroke-dasharray:none" />
  <path d="m 37.899438,13.062438 -7.567526,12.999938 -7.5673,-12.999938 15.134825,0 z" style="fill:#529589;fill-opacity:1;fill-rule:nonzero;stroke:#8cb386;stroke-width:0.05;stroke-miterlimit:4;stroke-opacity:1;stroke-dasharray:none" />
  <path d="M 45.529313,0.0625 37.9618,13.062438 30.3945,0.0625 l 15.134812,0 z"        style="fill:#197971;fill-opacity:1;fill-rule:nonzero;stroke:#197971;stroke-width:0.05;stroke-miterlimit:4;stroke-opacity:1;stroke-dasharray:none" />
  <path d="M 37.961875,13.062438 45.529388,0.0625 l 7.5673,12.999938 -15.134813,0 z"   style="fill:#3fa089;fill-opacity:1;fill-rule:nonzero;stroke:#3fa089;stroke-width:0.05;stroke-miterlimit:4;stroke-opacity:1;stroke-dasharray:none" />
  <path d="m 60.663988,0.0625 -7.5673,12.999938 -7.567301,-12.999938 15.1346,0 z"      style="fill:#72ab89;fill-opacity:1;fill-rule:nonzero;stroke:#72ab89;stroke-width:0.05;stroke-miterlimit:4;stroke-opacity:1;stroke-dasharray:none" />
  <path d="m 53.096638,13.062438 7.5673,-12.999938 7.567525,12.999938 -15.134825,0 z"  style="fill:#69a68a;fill-opacity:1;fill-rule:nonzero;stroke:#a6b886;stroke-width:0.05;stroke-miterlimit:4;stroke-opacity:1;stroke-dasharray:none" />
  <path d="m 30.394525,26.0625 7.5673,-12.999937 7.567513,12.999937 -15.134813,0 z"    style="fill:#00707a;fill-opacity:1;fill-rule:nonzero;stroke:#00707a;stroke-width:0.05;stroke-miterlimit:4;stroke-opacity:1;stroke-dasharray:none" />
  <path d="m 53.096638,13.062438 -7.5673,12.999938 -7.567513,-12.999938 15.134813,0 z" style="fill:#007d7e;fill-opacity:1;fill-rule:nonzero;stroke:#007d7e;stroke-width:0.05;stroke-miterlimit:4;stroke-opacity:1;stroke-dasharray:none" />
  <path d="m 45.529313,26.0625 7.567299,-12.999937 7.567301,12.999937 -15.1346,0 z"    style="fill:#69a68a;fill-opacity:1;fill-rule:nonzero;stroke:#69a68a;stroke-width:0.05;stroke-miterlimit:4;stroke-opacity:1;stroke-dasharray:none" />
  <path d="m 68.231438,13.062438 -7.567526,12.999938 -7.5673,-12.999938 15.134825,0 z" style="fill:#529589;fill-opacity:1;fill-rule:nonzero;stroke:#8cb386;stroke-width:0.05;stroke-miterlimit:4;stroke-opacity:1;stroke-dasharray:none" />
  <path d="M 75.861313,0.0625 68.2938,13.062438 60.7265,0.0625 l 15.134812,0 z"        style="fill:#197971;fill-opacity:1;fill-rule:nonzero;stroke:#197971;stroke-width:0.05;stroke-miterlimit:4;stroke-opacity:1;stroke-dasharray:none" />
  <path d="M 68.293875,13.062438 75.861388,0.0625 l 7.5673,12.999938 -15.134813,0 z"   style="fill:#3fa089;fill-opacity:1;fill-rule:nonzero;stroke:#3fa089;stroke-width:0.05;stroke-miterlimit:4;stroke-opacity:1;stroke-dasharray:none" />
  <path d="m 90.995988,0.0625 -7.5673,12.999938 -7.567301,-12.999938 15.1346,0 z"      style="fill:#72ab89;fill-opacity:1;fill-rule:nonzero;stroke:#72ab89;stroke-width:0.05;stroke-miterlimit:4;stroke-opacity:1;stroke-dasharray:none" />
  <path d="m 83.428638,13.062438 7.5673,-12.999938 7.567525,12.999938 -15.134825,0 z"  style="fill:#69a68a;fill-opacity:1;fill-rule:nonzero;stroke:#a6b886;stroke-width:0.05;stroke-miterlimit:4;stroke-opacity:1;stroke-dasharray:none" />
  <path d="m 60.726525,26.0625 7.5673,-12.999937 7.567513,12.999937 -15.134813,0 z"    style="fill:#00707a;fill-opacity:1;fill-rule:nonzero;stroke:#00707a;stroke-width:0.05;stroke-miterlimit:4;stroke-opacity:1;stroke-dasharray:none" />
  <path d="m 83.428638,13.062438 -7.5673,12.999938 -7.567513,-12.999938 15.134813,0 z" style="fill:#007d7e;fill-opacity:1;fill-rule:nonzero;stroke:#007d7e;stroke-width:0.05;stroke-miterlimit:4;stroke-opacity:1;stroke-dasharray:none" />
  <path d="m 75.861313,26.0625 7.567299,-12.999937 7.567301,12.999937 -15.1346,0 z"    style="fill:#69a68a;fill-opacity:1;fill-rule:nonzero;stroke:#69a68a;stroke-width:0.05;stroke-miterlimit:4;stroke-opacity:1;stroke-dasharray:none" />
  <path d="m 98.563438,13.062438 -7.567526,12.999938 -7.5673,-12.999938 15.134825,0 z" style="fill:#529589;fill-opacity:1;fill-rule:nonzero;stroke:#529589;stroke-width:0.05;stroke-miterlimit:4;stroke-opacity:1;stroke-dasharray:none" />
</svg>
