<?xml version="1.0" encoding="UTF-8" standalone="no"?>
<svg xmlns="http://www.w3.org/2000/svg" version="1.1" height="26" width="48" xml:space="preserve">
  <g transform="translate(-38,0)">
    <g transform="matrix(1.25,0,0,-1.25,0,32)">
      <g transform="matrix(-0.14833729,0,0,0.14833729,105.25468,-47.37267)">
        <g transform="translate(299.9707,494.4888)">
          <path fill="#9DB66C" fill-opacity="0.7" d="m 0,0 -39.209,-61.232 83.939,0 L 5.521,0 0,0 z"/>
        </g>
        <g transform="translate(305.4917,494.4888)">
          <path fill="#97B261" fill-opacity="0.7" d="M 0,0 39.209,-61.232 78.418,0 0,0 z"/>
        </g>
        <g transform="translate(383.9101,494.4888)">
          <path fill="#AABD86" fill-opacity="0.7" d="m 0,0 -39.209,-61.232 83.938,0 L 5.521,0 0,0 z"/>
        </g>
        <g transform="translate(389.431,494.4888)">
          <path fill="#AABF80" fill-opacity="0.7" d="M 0,0 39.208,-61.232 78.417,0 0,0 z"/>
        </g>
        <g transform="translate(467.8478,494.4888)">
          <path fill="#BBE26E" fill-opacity="0.7" d="m 0,0 -39.208,-61.232 83.937,0 L 5.521,0 0,0 z"/>
        </g>
        <g transform="translate(473.3686,494.4888)">
          <path fill="#B7E65A" fill-opacity="0.7" d="M 0,0 39.208,-61.232 78.417,0 0,0 z"/>
        </g>
        <g transform="translate(551.7853,494.4888)">
          <path fill="#AFE04D" fill-opacity="0.7" d="m 0,0 -39.208,-61.232 83.937,0 L 5.521,0 0,0 z"/>
        </g>
        <g transform="translate(557.3062,494.4888)">
          <path fill="#B9F247" fill-opacity="0.7" d="M 0,0 39.208,-61.232 78.418,0 0,0 z"/>
        </g>
        <g transform="translate(635.7247,494.4888)">
          <path fill="#B3E550" fill-opacity="0.7" d="m 0,0 -39.21,-61.232 83.938,0 L 5.521,0 0,0 z"/>
        </g>
        <g transform="translate(641.2455,494.4888)">
          <path fill="#98C146" fill-opacity="0.7" d="M 0,0 39.208,-61.232 68.317,-15.771 68.317,0 0,0 z"/>
        </g>
        <g transform="translate(680.4531,433.2564)">
          <path fill="#8CB638" fill-opacity="0.7" d="m 0,0 29.11,0 0,45.461 L 0,0 z"/>
        </g>
        <g transform="translate(344.7012,433.2563)">
          <path fill="#5F8F00" fill-opacity="0.7" d="M 0,0 -41.97,-65.545 -83.939,0 0,0 z"/>
        </g>
        <g transform="translate(302.731,367.7109)">
          <path fill="#7F9F3F" fill-opacity="0.7" d="M 0,0 41.97,65.545 83.94,0 0,0 z"/>
        </g>
        <g transform="translate(428.6396,433.2563)">
          <path fill="#97AA72" fill-opacity="0.7" d="M 0,0 -41.969,-65.545 -83.938,0 0,0 z"/>
        </g>
        <g transform="translate(386.6709,367.7109)">
          <path fill="#A6B785" fill-opacity="0.7" d="M 0,0 41.969,65.545 83.938,0 0,0 z"/>
        </g>
        <g transform="translate(512.5771,433.2563)">
          <path fill="#B4CB87" fill-opacity="0.7" d="M 0,0 -41.969,-65.545 -83.938,0 0,0 z"/>
        </g>
        <g transform="translate(470.6084,367.7109)">
          <path fill="#C0E773" fill-opacity="0.7" d="M 0,0 41.969,65.545 83.938,0 0,0 z"/>
        </g>
        <g transform="translate(596.5146,433.2563)">
          <path fill="#CBF676" fill-opacity="0.7" d="M 0,0 -41.969,-65.545 -83.938,0 0,0 z"/>
        </g>
        <g transform="translate(554.5459,367.7109)">
          <path fill="#BCEE58" fill-opacity="0.7" d="M 0,0 41.969,65.545 83.939,0 0,0 z"/>
        </g>
        <g transform="translate(680.4531,433.2563)">
          <path fill="#9EC74D" fill-opacity="0.7" d="M 0,0 -41.968,-65.545 -83.938,0 0,0 z"/>
        </g>
        <g transform="translate(638.4852,367.7112)">
          <path fill="#8CB143" fill-opacity="0.7" d="m 0,0 71.078,0 0,20.083 L 41.968,65.545 0,0 z"/>
        </g>
        <g transform="translate(680.4531,433.2564)">
          <path fill="#749631" fill-opacity="0.7" d="M 0,0 29.11,-45.462 29.11,0 0,0 z"/>
        </g>
        <g transform="translate(271.7697,319.3578)">
          <path fill="#517A00" fill-opacity="0.7" d="M 0,0 61.923,0 30.962,48.353 0,0 z"/>
        </g>
        <g transform="translate(302.7312,367.7112)">
          <path fill="#547E00" fill-opacity="0.7" d="m 0,0 30.961,-48.353 22.017,0 L 83.939,0 0,0 z"/>
        </g>
        <g transform="translate(355.7091,319.3578)">
          <path fill="#90A469" fill-opacity="0.7" d="M 0,0 61.922,0 30.961,48.353 0,0 z"/>
        </g>
        <g transform="translate(386.6706,367.7112)">
          <path fill="#A3B285" fill-opacity="0.7" d="m 0,0 30.961,-48.353 22.016,0 L 83.938,0 0,0 z"/>
        </g>
        <g transform="translate(439.6474,319.3578)">
          <path fill="#AEC680" fill-opacity="0.7" d="M 0,0 61.922,0 30.961,48.353 0,0 z"/>
        </g>
        <g transform="translate(470.6082,367.7112)">
          <path fill="#B1D766" fill-opacity="0.7" d="m 0,0 30.961,-48.353 22.016,0 L 83.938,0 0,0 z"/>
        </g>
        <g transform="translate(523.585,319.3578)">
          <path fill="#C1EE67" fill-opacity="0.7" d="M 0,0 61.922,0 30.961,48.353 0,0 z"/>
        </g>
        <g transform="translate(554.5458,367.7112)">
          <path fill="#A9D651" fill-opacity="0.7" d="m 0,0 30.961,-48.353 22.016,0 L 83.939,0 0,0 z"/>
        </g>
        <g transform="translate(607.523,319.3578)">
          <path fill="#98C148" fill-opacity="0.7" d="M 0,0 61.922,0 30.962,48.353 0,0 z"/>
        </g>
        <g transform="translate(638.4852,367.7112)">
          <path fill="#7D9B41" fill-opacity="0.7" d="m 0,0 30.96,-48.353 22.016,0 18.102,28.27 L 71.078,0 0,0 z"/>
        </g>
        <g transform="translate(691.4611,319.3578)">
          <path fill="#698336" fill-opacity="0.7" d="m 0,0 18.102,0 0,28.27 L 0,0 z"/>
        </g>
      </g>
    </g>
  </g>
</svg>
