<?xml version="1.0" encoding="UTF-8" standalone="no"?>
<svg xmlns="http://www.w3.org/2000/svg" version="1.1" height="26" width="100">
  <g>
    <g transform="matrix(1.25,0,0,-1.25,0,32)">
      <g transform="matrix(0.14833729,0,0,0.14833729,31.537529,25.978459)">
        <path fill="#9DB66C" fill-opacity="0.7" d="M 0,0 39.208,-61.232 78.417,0 0,0 z"/>
      </g>
      <g transform="matrix(0.14833729,0,0,0.14833729,43.16965,25.978459)">
        <path fill="#97B261" fill-opacity="0.7" d="m 0,0 -39.208,-61.232 83.937,0 L 5.521,0 0,0 z"/>
      </g>
      <g transform="matrix(0.14833729,0,0,0.14833729,43.988605,25.978459)">
        <path fill="#AABD86" fill-opacity="0.7" d="M 0,0 39.208,-61.232 78.418,0 0,0 z"/>
      </g>
      <g transform="matrix(0.14833729,0,0,0.14833729,55.620993,25.978459)">
        <path fill="#AABF80" fill-opacity="0.7" d="m 0,0 -39.21,-61.232 83.938,0 L 5.521,0 0,0 z"/>
      </g>
      <g transform="matrix(0.14833729,0,0,0.14833729,56.439934,25.978459)">
        <path fill="#BBE26E" fill-opacity="0.7" d="M 0,0 39.208,-61.232 68.317,-15.771 68.317,0 0,0 z"/>
      </g>
      <g transform="matrix(0.14833729,0,0,0.14833729,62.255883,16.89541)">
        <path fill="#B7E65A" fill-opacity="0.7" d="m 0,0 29.11,0 0,45.461 L 0,0 z"/>
      </g>
      <g transform="matrix(0.14833729,0,0,0.14833729,31.128089,7.1725684)">
        <path fill="#5F8F00" fill-opacity="0.7" d="M 0,0 41.969,65.545 83.938,0 0,0 z"/>
      </g>
      <g transform="matrix(0.14833729,0,0,0.14833729,49.804673,16.895395)">
        <path fill="#7F9F3F" fill-opacity="0.7" d="M 0,0 -41.969,-65.545 -83.938,0 0,0 z"/>
      </g>
      <g transform="matrix(0.14833729,0,0,0.14833729,43.57915,7.1725684)">
        <path fill="#97AA72" fill-opacity="0.7" d="M 0,0 41.969,65.545 83.939,0 0,0 z"/>
      </g>
      <g transform="matrix(0.14833729,0,0,0.14833729,62.255883,16.895395)">
        <path fill="#A6B785" fill-opacity="0.7" d="M 0,0 -41.968,-65.545 -83.938,0 0,0 z"/>
      </g>
      <g transform="matrix(0.14833729,0,0,0.14833729,56.030478,7.1726129)">
        <path fill="#B4CB87" fill-opacity="0.7" d="m 0,0 71.078,0 0,20.083 L 41.968,65.545 0,0 z"/>
      </g>
      <g transform="matrix(0.14833729,0,0,0.14833729,62.255883,16.89541)">
        <path fill="#C0E773" fill-opacity="0.7" d="M 0,0 29.11,-45.462 29.11,0 0,0 z"/>
      </g>
      <g transform="matrix(0.14833729,0,0,0.14833729,31.128059,7.1726129)">
        <path fill="#547E00" fill-opacity="0.7" d="m 0,0 30.961,-48.353 22.016,0 L 83.938,0 0,0 z"/>
      </g>
      <g transform="matrix(0.14833729,0,0,0.14833729,38.986494,5.9236201e-7)">
        <path fill="#90A469" fill-opacity="0.7" d="M 0,0 61.922,0 30.961,48.353 0,0 z"/>
      </g>
      <g transform="matrix(0.14833729,0,0,0.14833729,43.579135,7.1726129)">
        <path fill="#A3B285" fill-opacity="0.7" d="m 0,0 30.961,-48.353 22.016,0 L 83.939,0 0,0 z"/>
      </g>
      <g transform="matrix(0.14833729,0,0,0.14833729,51.437629,5.9236201e-7)">
        <path fill="#AEC680" fill-opacity="0.7" d="M 0,0 61.922,0 30.962,48.353 0,0 z"/>
      </g>
      <g transform="matrix(0.14833729,0,0,0.14833729,56.030478,7.1726129)">
        <path fill="#B1D766" fill-opacity="0.7" d="m 0,0 30.96,-48.353 22.016,0 18.102,28.27 L 71.078,0 0,0 z"/>
      </g>
      <g transform="matrix(0.14833729,0,0,0.14833729,63.88878,5.9236201e-7)">
        <path fill="#C1EE67" fill-opacity="0.7" d="m 0,0 18.102,0 0,28.27 L 0,0 z"/>
      </g>
    </g>
  </g>
</svg>
